<?xml version="1.0" encoding="UTF-8"?>
<svg width="19px" height="19px" viewBox="0 0 19 19" version="1.1" xmlns="http://www.w3.org/2000/svg" xmlns:xlink="http://www.w3.org/1999/xlink">
    <!-- Generator: Sketch 59.1 (86144) - https://sketch.com -->
    <title>Path@2x</title>
    <desc>Created with Sketch.</desc>
    <g id="Page-1" stroke="none" stroke-width="1" fill="none" fill-rule="evenodd">
        <g id="Nearby-People-after-stop" transform="translate(-336.000000, -122.000000)" fill="#999999" fill-rule="nonzero">
            <path d="M336.646988,127.879121 L353.852596,122.123231 C353.852596,122.123231 354.421376,121.811335 354.819522,122.179939 C355.18923,122.633605 354.876401,123.14398 354.876401,123.14398 L349.160157,140.354943 C349.160157,140.354943 348.904206,140.865318 348.961084,140.80861 C348.705133,141.063797 348.335426,141.063797 348.079474,140.80861 C347.823523,140.553422 347.823523,140.354943 347.823523,140.354943 L345.29245,131.735284 L336.646988,129.211766 C336.646988,129.211766 336.447915,129.211766 336.191963,128.956579 C335.936012,128.701391 335.936012,128.332787 336.191963,128.0776 C336.135085,128.134308 336.646988,127.879121 336.646988,127.879121 Z" id="Path"></path>
        </g>
    </g>
</svg>