<?xml version="1.0" encoding="UTF-8"?>
<svg width="23px" height="23px" viewBox="0 0 23 23" version="1.1" xmlns="http://www.w3.org/2000/svg" xmlns:xlink="http://www.w3.org/1999/xlink">
    <!-- Generator: Sketch 59.1 (86144) - https://sketch.com -->
    <title>Shape@2x</title>
    <desc>Created with Sketch.</desc>
    <g id="Page-1" stroke="none" stroke-width="1" fill="none" fill-rule="evenodd">
        <g id="directory" transform="translate(-332.000000, -144.000000)" fill="#000000" fill-rule="nonzero">
            <g id="地图" transform="translate(332.000000, 144.000000)">
                <path d="M2.87500001,14.375 L2.87500001,18.6875 L7.90625,20.125 L15.09375,17.25 L20.125,18.6875 L20.125,7.18749999 L15.09375,7.18749999 L15.09375,4.31250001 L23,4.31250001 L23,22.28125 L15.09375,20.125 L7.90625,23 L1.13686838e-13,20.84375 L1.13686838e-13,14.375 L2.87500001,14.375 Z M10.0625,6.74978126 C10.0625,4.58346875 8.42518751,2.87500001 6.46875,2.87500001 C4.5123125,2.87500001 2.87500001,4.58346875 2.87500001,6.74978126 C2.87500001,7.863125 4.01637501,9.60896876 6.46875,11.790375 C8.92112499,9.60896876 10.0625,7.86312502 10.0625,6.74978126 L10.0625,6.74978126 Z M6.46875,15.525 C2.15624999,12.1605313 0,9.2359375 0,6.74978126 C0,3.02234375 2.8965625,0 6.46875,0 C10.0409375,0 12.9375,3.02234375 12.9375,6.74978126 C12.9375,9.23521876 10.78125,12.1605313 6.46875,15.525 Z" id="Shape"></path>
            </g>
        </g>
    </g>
</svg>